# xmcd CD database file
#
# Track frame offsets:
#	150
#	33277
#	63225
#	93430
#	138692
#
# Disc length: 2224 seconds
#
# Revision: 0
# Processed by: cddbd v1.5PL3 Copyright (c) Steve Scherf et al.
# Submitted via: CDex 1.51
#
DISCID=3e08ae05
DTITLE=Bobby Hutcherson - Dialogue
DYEAR=1965
DGENRE=Jazz
TTITLE0=Catta
TTITLE1=Idle While
TTITLE2=Les Noires Marchent
TTITLE3=Dialogue
TTITLE4=Ghetto Lights
EXTD=YEAR: 1965
EXTT0=
EXTT1=
EXTT2=
EXTT3=
EXTT4=
PLAYORDER=
